<svg xmlns="http://www.w3.org/2000/svg" width="500" height="500" viewBox="0 0 500 500" version="1.1"><path d="M 92.674 195.750 C 92.314 196.358, 55.260 287.553, 53.341 292.553 C 52.879 293.759, 54.530 294, 63.259 294 L 73.732 294 75.726 288.750 L 77.720 283.500 93.717 283.226 L 109.714 282.952 111.716 288.226 L 113.718 293.500 124.387 293.784 L 135.055 294.068 133.467 290.284 C 132.593 288.203, 123.522 265.913, 113.309 240.750 C 103.095 215.587, 94.374 195, 93.929 195 C 93.483 195, 92.918 195.338, 92.674 195.750 M 258 246 L 258 294 267 294 L 276 294 276 246 L 276 198 267 198 L 258 198 258 246 M 314.463 199.591 C 304.807 203.020, 298.048 212.597, 297.231 224.009 C 296.634 232.360, 297.963 236.540, 303.053 242.322 C 307.594 247.482, 312.321 250.443, 323.251 254.974 C 331.694 258.474, 335 261.637, 335 266.212 C 335 270.074, 330.425 274.642, 325.663 275.535 C 320.759 276.455, 311.064 274.634, 304.242 271.511 C 301.166 270.102, 298.330 269.299, 297.940 269.725 C 297.550 270.151, 296.823 274.440, 296.325 279.257 L 295.420 288.013 300.476 289.905 C 309.579 293.311, 314.382 294.258, 322.500 294.246 C 337.206 294.224, 347.652 287.892, 351.956 276.389 C 358.250 259.566, 350.149 246.056, 328.592 237.426 C 318.799 233.506, 316 230.865, 316 225.547 C 316 222.262, 316.610 220.663, 318.636 218.636 C 320.918 216.354, 322.107 216, 327.477 216 C 330.890 216, 335.891 216.670, 338.591 217.489 C 341.291 218.308, 343.786 218.983, 344.136 218.989 C 344.487 218.995, 345.066 216.863, 345.424 214.250 C 345.782 211.637, 346.324 207.653, 346.629 205.395 L 347.184 201.289 340.636 199.645 C 332.722 197.657, 319.985 197.631, 314.463 199.591 M 89.202 252.779 C 86.891 259.255, 85 264.879, 85 265.277 C 85 265.675, 89.019 266, 93.932 266 L 102.863 266 98.933 254.302 C 96.772 247.867, 94.643 242.243, 94.204 241.804 C 93.764 241.364, 91.513 246.303, 89.202 252.779 M 373.139 252.294 L 366.778 253.310 367.310 257.272 C 369.356 272.531, 388.170 291.562, 404.120 294.506 C 408.225 295.263, 408.296 295.137, 409.533 284.817 L 410.214 279.135 406.298 278.080 C 401.418 276.766, 393.898 271.852, 390.367 267.670 C 387.313 264.054, 383.024 255.356, 383.010 252.750 C 382.999 250.811, 382.557 250.790, 373.139 252.294" stroke="none" fill="#000000" fill-rule="evenodd"/><path d="M 0 250.002 L 0 500.004 250.250 499.752 L 500.500 499.500 500.752 249.750 L 501.004 0 250.502 0 L 0 0 0 250.002 M 0.492 250.500 C 0.492 388, 0.608 444.101, 0.750 375.170 C 0.892 306.238, 0.892 193.738, 0.750 125.170 C 0.608 56.601, 0.492 113, 0.492 250.500 M 92.661 194.750 C 92.410 195.162, 83.338 217.325, 72.500 244 C 61.662 270.675, 52.590 292.837, 52.339 293.250 C 52.087 293.663, 57.005 294, 63.265 294 L 74.649 294 76.123 289.250 L 77.597 284.500 93.710 284.226 L 109.823 283.951 111.492 288.976 L 113.161 294 124.080 294 C 130.086 294, 135 293.753, 135 293.452 C 135 293.150, 126.176 271.212, 115.391 244.702 C 104.606 218.191, 95.558 195.938, 95.284 195.250 C 94.730 193.859, 93.363 193.598, 92.661 194.750 M 403.500 196.389 C 395.543 198.329, 386.613 203.692, 380.173 210.398 C 349.108 242.750, 371.036 296, 415.424 296 C 429.859 296, 441.951 290.887, 451.821 280.608 C 482.697 248.454, 459.830 194.550, 415.540 195.085 C 411.668 195.132, 406.250 195.719, 403.500 196.389 M 150.448 198.275 C 150.179 198.976, 150.108 220.013, 150.290 245.025 L 150.620 290.500 159.810 290.788 L 169 291.075 169.026 265.288 L 169.051 239.500 180.734 251.870 L 192.416 264.240 204.186 251.870 L 215.956 239.500 215.909 265 L 215.863 290.500 224.931 290.788 L 234 291.075 234 244.038 L 234 197 231.547 197 C 229.627 197, 225.220 201.293, 211.275 216.750 C 201.475 227.613, 193.016 236.571, 192.478 236.659 C 191.940 236.746, 183.477 227.858, 173.672 216.909 C 159.681 201.284, 155.316 197, 153.391 197 C 152.041 197, 150.717 197.574, 150.448 198.275 M 315.860 198.503 C 309.520 200.543, 301.838 207.670, 298.918 214.221 C 295.457 221.983, 295.611 231.953, 299.288 238.228 C 300.778 240.772, 303.686 244.255, 305.749 245.969 C 309.232 248.862, 311.941 250.311, 327.186 257.430 C 331.784 259.577, 333.087 260.735, 333.994 263.481 C 335.437 267.854, 333.392 272.181, 329.026 273.989 C 323.799 276.154, 312.382 274.835, 304.526 271.159 C 300.813 269.422, 297.657 268, 297.511 268 C 297.366 268, 296.698 272.362, 296.027 277.693 C 294.590 289.106, 294.389 288.796, 305.500 292.295 C 315.555 295.462, 330.453 295.409, 337.607 292.181 C 348.030 287.478, 354.294 277.658, 354.294 266.022 C 354.294 252.683, 346.521 244.223, 326.721 236.014 C 320.733 233.532, 318.583 232.095, 317.383 229.773 C 315.484 226.102, 316.217 221.018, 319.009 218.491 C 322.619 215.225, 334.026 215.675, 343.121 219.443 C 345.243 220.322, 345.689 218.986, 346.543 209.201 L 347.245 201.150 341.873 199.500 C 334.198 197.142, 321.590 196.659, 315.860 198.503 M 257 246 L 257 294 267 294 L 277 294 277 246 L 277 198 267 198 L 257 198 257 246 M 407.407 213.348 C 400.759 215.038, 396.073 218.012, 390.794 223.890 C 384.711 230.662, 382.641 237.050, 383.207 247.311 C 383.756 257.274, 386.612 263.544, 393.485 269.879 C 406.335 281.724, 424.993 282.005, 437.739 270.545 C 445.096 263.930, 448.296 257.260, 448.789 247.512 C 449.297 237.456, 446.845 230.268, 440.497 223.208 C 432.653 214.484, 418.971 210.407, 407.407 213.348 M 89.724 252.786 C 87.662 258.679, 85.981 263.837, 85.988 264.250 C 85.994 264.663, 89.600 265, 94 265 C 98.400 265, 102 264.809, 102 264.575 C 102 263.660, 94.661 243.458, 94.085 242.786 C 93.748 242.394, 91.786 246.894, 89.724 252.786" stroke="none" fill="#ffffff" fill-rule="evenodd"/><path d="M 257.463 246 C 257.463 272.675, 257.592 283.587, 257.749 270.250 C 257.907 256.913, 257.907 235.088, 257.749 221.750 C 257.592 208.412, 257.463 219.325, 257.463 246 M 276.463 246 C 276.463 272.675, 276.592 283.587, 276.749 270.250 C 276.907 256.913, 276.907 235.088, 276.749 221.750 C 276.592 208.412, 276.463 219.325, 276.463 246 M 445.599 215.900 L 439.752 221.808 442.450 225.345 C 448.619 233.433, 450.833 247.170, 447.471 256.500 C 446.679 258.700, 446.023 260.607, 446.015 260.737 C 445.968 261.485, 460.231 267.975, 460.948 267.532 C 462.821 266.375, 465.198 257.067, 465.718 248.853 C 466.592 235.057, 461.798 220.496, 453.668 212.246 L 451.446 209.991 445.599 215.900 M 150.392 235 C 150.392 242.425, 150.549 245.463, 150.742 241.750 C 150.934 238.037, 150.934 231.963, 150.742 228.250 C 150.549 224.537, 150.392 227.575, 150.392 235 M 296.252 226.500 C 296.263 228.700, 296.468 229.482, 296.707 228.238 C 296.946 226.994, 296.937 225.194, 296.687 224.238 C 296.437 223.282, 296.241 224.300, 296.252 226.500 M 320.250 275.689 C 321.212 275.941, 322.788 275.941, 323.750 275.689 C 324.712 275.438, 323.925 275.232, 322 275.232 C 320.075 275.232, 319.288 275.438, 320.250 275.689 M 150.336 283 C 150.336 287.125, 150.513 288.813, 150.728 286.750 C 150.944 284.688, 150.944 281.313, 150.728 279.250 C 150.513 277.188, 150.336 278.875, 150.336 283 M 377 278.313 C 377 278.485, 378.462 279.948, 380.250 281.563 L 383.500 284.500 380.563 281.250 C 377.825 278.221, 377 277.540, 377 278.313 M 77.652 283.750 C 77.395 284.163, 81.981 284.381, 87.843 284.237 C 107.505 283.751, 109.618 283.380, 93.809 283.189 C 85.179 283.085, 77.908 283.337, 77.652 283.750" stroke="none" fill="#0785c7" fill-rule="evenodd"/><path d="M 387.432 203.825 C 376.361 211.907, 368.698 224.075, 366.404 237.212 C 364.957 245.500, 365.470 254.088, 367.375 253.485 C 367.994 253.289, 371.762 252.610, 375.750 251.974 L 383 250.819 382.995 244.660 C 382.986 233.881, 387.811 224.772, 397.085 218.053 L 400.789 215.370 397.144 208.492 C 395.140 204.709, 393.019 201.465, 392.432 201.284 C 391.844 201.103, 389.594 202.246, 387.432 203.825" stroke="none" fill="#049f3d" fill-rule="evenodd"/><path d="M 150.434 198.311 C 150.157 199.032, 150.075 204.770, 150.252 211.061 L 150.572 222.500 150.786 210.316 L 151 198.133 153.750 197.716 L 156.500 197.300 153.719 197.150 C 152.189 197.067, 150.711 197.590, 150.434 198.311 M 214 231.696 C 203.275 234.591, 189.662 238.191, 183.750 239.697 C 177.838 241.202, 173 242.686, 173 242.994 C 173 243.303, 177.365 248.212, 182.701 253.905 L 192.402 264.254 204.158 251.877 L 215.914 239.500 215.957 248.857 C 215.989 255.904, 216.309 258.102, 217.250 257.761 C 217.938 257.512, 221.650 256.492, 225.500 255.496 C 229.350 254.499, 232.851 253.381, 233.280 253.012 C 233.709 252.642, 233.934 246.510, 233.780 239.386 L 233.500 226.432 214 231.696 M 158.500 246.372 L 150.500 248.526 150.500 262.128 L 150.500 275.731 159 273.378 C 163.675 272.084, 167.838 271.019, 168.250 271.012 C 168.662 271.006, 169 264.925, 169 257.500 C 169 247.308, 168.694 244.027, 167.750 244.109 C 167.063 244.169, 162.900 245.188, 158.500 246.372 M 445 261.892 C 445 262.382, 442.954 265.060, 440.453 267.841 C 434.441 274.527, 426.832 278.227, 417.605 278.948 L 410.539 279.500 409.331 286.500 C 408.666 290.350, 408.095 294.063, 408.061 294.750 C 407.970 296.608, 422.426 296.359, 429.068 294.388 C 440.976 290.855, 451.878 282.852, 458.173 273.023 L 461.040 268.545 453.770 264.822 C 445.981 260.833, 445 260.505, 445 261.892 M 84.998 265.250 C 84.999 265.663, 88.938 265.933, 93.750 265.850 C 102.899 265.693, 101.875 265.255, 91.248 264.780 C 87.810 264.626, 84.997 264.837, 84.998 265.250" stroke="none" fill="#ffcc00" fill-rule="evenodd"/><path d="M 405.500 196.059 C 399.768 197.480, 392.883 200.194, 393.223 200.899 C 394.345 203.217, 400.292 214.562, 400.520 214.818 C 400.675 214.993, 403.179 214.430, 406.083 213.568 C 416.411 210.501, 427.329 212.314, 435.337 218.427 L 439.758 221.802 445.545 215.954 C 450.735 210.710, 451.186 209.928, 449.916 208.387 C 447.547 205.513, 438.177 199.955, 432.172 197.861 C 425.585 195.565, 411.367 194.604, 405.500 196.059 M 151 209.914 L 151 221.829 160.913 219.164 C 166.365 217.699, 170.888 216.050, 170.963 215.500 C 171.039 214.950, 167.833 210.787, 163.839 206.250 C 158.007 199.626, 156.027 198, 153.788 198 L 151 198 151 209.914 M 226.405 200.170 C 224.526 202.310, 224.527 202.329, 226.500 201.600 C 227.600 201.193, 229.738 200.610, 231.250 200.305 C 234.855 199.577, 234.790 198, 231.155 198 C 229.488 198, 227.521 198.898, 226.405 200.170 M 224.500 282.427 C 216.808 284.586, 216.488 284.794, 216.187 287.836 L 215.873 291 224.937 291 L 234 291 234 285.500 C 234 282.475, 233.662 280.041, 233.250 280.091 C 232.838 280.141, 228.900 281.192, 224.500 282.427" stroke="none" fill="#ce0101" fill-rule="evenodd"/><path d="M 227.464 201.326 C 225.794 201.972, 222.419 204.750, 219.964 207.500 C 217.509 210.250, 211.466 217, 206.534 222.500 C 201.603 228, 196.688 233.511, 195.612 234.747 L 193.657 236.994 198.578 235.571 C 201.285 234.788, 208.900 232.738, 215.500 231.015 C 222.100 229.291, 228.963 227.423, 230.750 226.863 L 234 225.845 234 212.922 C 234 198.645, 234.071 198.771, 227.464 201.326 M 161.500 218.913 L 151.500 221.665 151.221 234.833 C 151.068 242.075, 151.229 248, 151.580 248 C 151.931 248, 155.994 247.010, 160.609 245.799 C 167.624 243.960, 169 243.268, 169 241.585 C 169 239.759, 169.146 239.717, 170.563 241.134 C 171.980 242.551, 172.982 242.463, 181.313 240.188 C 186.366 238.809, 190.667 237.547, 190.872 237.385 C 191.363 236.995, 172.816 215.976, 172.074 216.080 C 171.758 216.124, 167 217.399, 161.500 218.913 M 223.250 256.266 L 216 258.284 216 271.578 L 216 284.873 223.250 282.894 C 227.238 281.805, 231.287 280.678, 232.250 280.390 C 233.799 279.925, 234 278.383, 234 266.933 C 234 252.077, 234.943 253.012, 223.250 256.266 M 159.500 273.332 L 151.500 275.500 151.208 283.250 L 150.916 291 159.958 291 L 169 291 169 281 C 169 275.500, 168.662 271.037, 168.250 271.082 C 167.838 271.127, 163.900 272.140, 159.500 273.332" stroke="none" fill="#010068" fill-rule="evenodd"/></svg>